<?xml version="1.0" standalone="no"?>
<!DOCTYPE svg PUBLIC "-//W3C//DTD SVG 20010904//EN"
 "http://www.w3.org/TR/2001/REC-SVG-20010904/DTD/svg10.dtd">
<svg version="1.0" xmlns="http://www.w3.org/2000/svg"
 width="512.000000pt" height="512.000000pt" viewBox="0 0 512.000000 512.000000"
 preserveAspectRatio="xMidYMid meet">
<metadata>
Created by potrace 1.14, written by Peter Selinger 2001-2017
</metadata>
<g transform="translate(0.000000,512.000000) scale(0.100000,-0.100000)"
fill="#000000" stroke="none">
<path d="M760 5106 c-114 -37 -204 -128 -238 -240 -4 -11 -8 -801 -9 -1755 -2
-954 -5 -1737 -8 -1740 -3 -3 -103 -5 -223 -6 -225 -1 -251 -5 -272 -44 -6
-12 -9 -155 -7 -390 l2 -370 23 -23 c22 -22 28 -23 252 -26 l230 -3 1 -87 c1
-48 1 -91 0 -95 -1 -4 6 -36 15 -69 29 -115 103 -193 227 -243 34 -13 276 -15
2055 -15 2182 0 2061 -3 2148 53 81 51 133 125 154 217 14 65 13 1102 -1 1133
-19 42 -46 47 -279 47 l-220 0 -1 1658 c0 911 -2 1677 -4 1701 -10 110 -60
190 -163 260 -76 53 -5 51 -1892 50 -1301 -1 -1764 -4 -1790 -13z"/>
</g>
</svg>
